<?xml version="1.0" encoding="UTF-8" standalone="no"?>
<svg
   xmlns:dc="http://purl.org/dc/elements/1.1/"
   xmlns:cc="http://creativecommons.org/ns#"
   xmlns:rdf="http://www.w3.org/1999/02/22-rdf-syntax-ns#"
   xmlns:svg="http://www.w3.org/2000/svg"
   xmlns="http://www.w3.org/2000/svg"
   viewBox="0 0 338.66666 341.33334"
   height="341.33334"
   width="338.66666"
   xml:space="preserve"
   id="svg2"
   version="1.1"><metadata
     id="metadata8"><rdf:RDF><cc:Work
         rdf:about=""><dc:format>image/svg+xml</dc:format><dc:type
           rdf:resource="http://purl.org/dc/dcmitype/StillImage" /></cc:Work></rdf:RDF></metadata><defs
     id="defs6" /><g
     transform="matrix(1.3333333,0,0,-1.3333333,0,341.33333)"
     id="g10"><g
       transform="scale(0.1)"
       id="g12"><path
         id="path14"
         style="fill:#234773;fill-opacity:1;fill-rule:evenodd;stroke:none"
         d="m 1701.02,86.0195 c 15.97,7.961 32.81,15.9685 50.46,23.9805 18.01,8.012 33.01,17.148 45,27.5 -5.97,-4.648 -13.47,-9.18 -22.5,-13.52 -8.98,-4.64 -18.16,-9.14 -27.5,-13.468 -9.33,-4.34 -18.16,-8.672 -26.48,-13.012 -8.01,-3.9805 -14.34,-7.8516 -18.98,-11.4805 M 661.48,2362.5 c 1.68,3.98 5.508,8.16 11.532,12.5 5.968,4.65 10.148,8.83 12.5,12.5 -6.332,-3.32 -10.864,-6.48 -13.524,-9.49 -2.34,-3.01 -6.988,-6.17 -13.976,-9.49 2.648,-0.67 2.808,-2.35 0.508,-5 -2.7,-2.7 -1.68,-3.01 2.96,-1.02 m 101.02,50.51 19.488,8.01 c 13.364,5.31 26.84,10.82 40.512,16.48 14.34,5 29.18,10.35 44.488,16.02 -10.308,0.66 -23.468,-2.7 -39.488,-10 -7.66,-3.36 -15,-6.53 -21.988,-9.54 -7.352,-3.32 -13.672,-5.46 -19.032,-6.48 -3.628,-1.99 -6.832,-4.18 -9.492,-6.48 -3.008,-2.04 -6.476,-4.18 -10.508,-6.53 -1.32,0.67 -6.832,-0.66 -16.48,-3.98 -9.34,-3.36 -18.98,-7.5 -28.98,-12.5 -9.692,-4.69 -16.02,-8.83 -19.032,-12.5 14.032,6.64 27.66,12.81 41.024,18.47 6.328,3.01 12.808,6.02 19.488,9.03 M 2375.51,1612.5 c -0.67,3.67 -2.35,9.18 -5,16.48 -2.66,7.04 -6.02,14.18 -10,21.53 -4.03,7.34 -8.17,13.16 -12.5,17.5 -4.34,4.33 -8.01,5.31 -11.02,3.01 3.67,-5.36 6.99,-11.84 10,-19.54 3.01,-7.96 5.67,-16.32 8.01,-25 1.99,-8.32 4.18,-15.97 6.48,-22.96 2.35,-7.04 4.69,-12.19 7.04,-15.51 5,-5.35 7.81,-4.49 8.47,2.5 0.67,6.99 0.16,14.33 -1.48,21.99 m -4.03,-188.01 c 0.36,-9.65 -0.31,-18.01 -1.99,-25 -1.64,1.02 -2.81,3.52 -3.47,7.5 -1.02,4.34 -2.35,6.99 -4.03,8.01 1.33,-6.33 1.53,-10.51 0.51,-12.5 -1.68,4.34 -2.66,4.18 -3.01,-0.51 4.34,-7.65 8.67,-8.67 13.01,-3.01 4.34,5.67 3.98,14.18 -1.02,25.51 M 2178.98,651.02 C 2128.01,573.672 2068.32,503.98 2000,441.988 c 17.66,4.692 35.51,9.692 53.52,15 9.64,3.012 19.49,6.332 29.49,10 10.31,3.672 20.51,8.012 30.51,13.012 8.98,9.648 15.31,16.84 18.98,21.48 3.32,4.692 6.48,9.692 9.49,15 2.66,5 8.01,13.008 16.02,24.032 3.01,7.34 4.84,14.136 5.51,20.508 0.66,6.64 1.13,13.32 1.48,20 0,12.652 4.65,26.128 13.98,40.46 -1.99,8.68 -1.99,18.52 0,29.54 M 353.52,1878.01 c 2.96,2.65 5.968,5 8.98,6.99 1.988,3.32 4.18,6.48 6.48,9.49 0,3.36 -0.66,5.67 -1.992,6.99 -1.328,1.68 -3.976,1.02 -8.008,-1.99 -6.32,-10.31 -8.16,-17.5 -5.46,-21.48 m 16.48,28.47 c 2.34,-0.97 5,-0.82 8.012,0.51 9.648,12.66 19.488,25.35 29.488,38.01 -1.328,3.98 -1.02,8.83 1.02,14.49 7.652,4.34 11.32,4.34 10.968,0 54.692,65.67 116.332,124.18 185,175.51 -5.308,-2.34 -10.66,-4.49 -15.968,-6.48 -9.34,-4.03 -18.36,-8.52 -27.04,-13.52 -8.628,-5 -16.128,-11.33 -22.5,-18.98 2.7,2.3 5.2,4.33 7.5,5.97 2.348,1.68 3.68,1.53 4.032,-0.51 -12.352,-8.63 -24.032,-17.14 -35,-25.46 -11.024,-8.36 -21.172,-18.52 -30.512,-30.51 -9.648,-6.68 -20.512,-15.86 -32.5,-27.5 -12.34,-11.33 -24.18,-24.03 -35.512,-38.01 -11.636,-13.98 -21.636,-27.5 -30,-40.51 -8.008,-13.32 -13.668,-24.33 -16.988,-33.01 m 493.98,373.01 c 69.692,26.99 142.35,46.84 218.01,59.49 6.68,3.01 14.03,5 21.99,6.02 17.35,2.66 32.7,4.34 46.02,5 6.99,0.35 13.67,0.35 20,0 30.35,2.66 61.02,3.98 91.99,3.98 54.69,0 108.36,-3.98 161.02,-11.99 -76.02,23.67 -156.53,33.01 -241.53,28.01 -86.32,-5.66 -172.65,-21.48 -258.98,-47.5 -14.648,-10 -29.84,-20.66 -45.512,-31.99 -5,-4.03 -9.328,-7.66 -13.008,-11.02 m 771.53,94.49 c 43.98,-18.63 85.31,-37.81 123.98,-57.5 38.67,-19.33 75.67,-39.33 111.02,-60 70.31,-40.31 137.81,-85.82 202.5,-136.48 2.65,-1.02 4.84,-1.02 6.48,0 1.68,1.02 4.49,-0.16 8.52,-3.52 12.34,-11.99 23.01,-20.46 31.99,-25.46 8.32,-5.67 16.99,-13.36 26.02,-23.01 4.64,-6.02 8.32,-12.19 10.97,-18.52 3.01,-6.64 6.84,-13.67 11.53,-20.97 3.32,-4.03 7.3,-8.01 11.99,-12.04 4.33,-4.33 6.64,-8.47 6.99,-12.5 3.01,18.36 -5,40.36 -23.98,66.02 -9.03,12.66 -19.69,25.66 -32.04,38.98 -12.3,12.7 -25.31,25.67 -38.98,39.03 -26.02,24.33 -49.84,46.17 -71.48,65.51 -21.68,19.33 -45,37.65 -70,55 -20.67,8.98 -40.51,18.47 -59.54,28.47 -18.98,10.35 -38.32,20.67 -57.96,31.02 -19.34,10.66 -39.85,20.97 -61.53,30.97 -10.97,5 -22.34,10 -33.98,15 -11.68,4.34 -23.83,8.52 -36.53,12.5 -0.66,-5.97 -3.82,-9.49 -9.49,-10.46 -5.31,-0.67 -11.83,-0.51 -19.49,0.46 -7.66,1.02 -15,1.53 -21.99,1.53 -6.68,0.31 -11.68,-1.02 -15,-4.03 m 130,25 c 6.64,-6.64 16.64,-13.32 30,-20 13.32,-6.99 28.01,-14.33 43.98,-21.99 8.01,-3.67 16.02,-7.5 24.03,-11.48 7.65,-4.03 15.15,-8.01 22.5,-11.99 15,-7.7 27.65,-15.2 37.96,-22.5 7.35,-6.37 14.54,-12.7 21.53,-19.03 6.99,-6.33 16.64,-13.47 28.98,-21.48 3.01,-3.36 4.85,-6.33 5.51,-9.03 0.66,-2.65 3.83,-5.97 9.49,-10 9.03,-1.64 19.69,-6.32 31.99,-13.98 12.35,-7.34 25,-15.51 38.01,-24.49 12.66,-9.03 24.18,-16.53 34.49,-22.5 10.67,-5.67 19.18,-7.66 25.51,-6.02 -4.65,9.34 -13.67,19.34 -26.99,30 -13.01,10.67 -26.68,22.35 -41.02,35 -6.99,7.35 -13.98,15.16 -20.97,23.52 -6.68,8.01 -13.83,15.31 -21.53,21.99 -18.32,15.66 -35.31,28.32 -50.97,38.01 -8.01,5 -15.51,9.49 -22.5,13.47 -7.35,3.68 -14.34,7.04 -21.02,10 -13.32,5.36 -25.97,9.34 -38.01,12.04 -11.99,2.3 -23.98,3.63 -35.97,3.98 -12.66,8.32 -25.16,13.16 -37.5,14.49 -12.35,1.33 -24.85,5.35 -37.5,11.99 m 426.99,-468.47 3.52,3.01 c -5.36,8.98 -10,16.32 -14.03,21.99 -3.98,5.31 -9.84,11.48 -17.5,18.47 -2.34,-3.98 0,-10.46 6.99,-19.49 7.04,-8.67 14.03,-16.64 21.02,-23.98 m -34.49,48.98 c 1.64,1.99 4.14,2.35 7.5,1.02 -5.67,7.65 -10,11.17 -13.01,10.51 -2.66,-0.67 -0.82,-4.54 5.51,-11.53 m -11.02,-21.99 c -12.34,18.01 -24.84,35.66 -37.5,53.01 -16.99,9.65 -35.97,23.16 -56.99,40.51 -20.66,16.99 -40.82,30.82 -60.51,41.48 13.01,-13.32 28.52,-26.17 46.53,-38.52 8.98,-6.32 17.96,-12.96 26.99,-20 8.98,-7.3 17.65,-15.15 25.97,-23.47 18.68,-19.69 35.51,-40.16 50.51,-61.53 14.69,-21.32 27.5,-42.3 38.52,-62.96 3.67,2.3 4.65,6.48 3.01,12.5 -1.68,5.66 -1.84,10.46 -0.51,14.49 -11.68,11.33 -23.67,26.17 -36.02,44.49 m -165.51,141.48 c -3.98,4.34 -8.82,8.87 -14.49,13.52 -5.66,5 -10.15,6.68 -13.47,5 6.99,-4.65 12.3,-8.52 15.97,-11.48 3.36,-3.01 7.35,-5.36 11.99,-7.04 M 1509.49,271.02 c -3.32,0.66 -5.51,0.46 -6.48,-0.508 -0.67,-0.672 -3.17,-1.532 -7.5,-2.5 0.31,-3.012 3.01,-4.032 8.01,-3.012 5.31,1.332 7.3,3.32 5.97,6.02 M 325,1680 c -60,-130.66 -90.512,-272.15 -91.48,-424.49 0.308,-89.69 11.32,-176.02 32.96,-259.03 21.68,-83.32 52.86,-161.64 93.52,-235 -1.988,12.348 -4.84,24.692 -8.52,37.04 -6.32,18.32 -13.16,36.32 -20.46,53.98 -7.04,17.34 -13.872,34.648 -20.508,51.988 -3.364,8.672 -6.684,17.352 -10,26.024 -3.012,8.668 -5.672,17.34 -8.012,25.968 -2.66,8.68 -5.16,17.192 -7.5,25.508 -1.988,8.672 -3.672,17.352 -5,26.022 -8.32,24.33 -16.172,49.84 -23.52,76.48 -6.992,26.68 -10.82,54.49 -11.48,83.52 -3.32,5.31 -5.66,12.65 -6.988,21.99 -1.332,9.65 -2.192,20.16 -2.5,31.48 0,11.02 0.66,21.84 1.988,32.5 1.02,10.36 1.988,19.18 3.012,26.53 -1.332,18.67 -1.532,38.67 -0.512,60 1.328,10.31 2.5,20.97 3.52,31.99 0.968,10.66 2.5,21.33 4.492,31.99 1.636,10.67 3.468,21.33 5.508,31.99 2.3,10.36 4.64,20.67 6.992,31.02 2.34,10 4.648,20 6.988,30 2.66,9.65 5.16,18.98 7.5,28.01 6.328,25.31 13.672,51.17 21.988,77.5 8.364,25.97 18.172,51.48 29.492,76.48 -0.308,0.35 -0.82,0.51 -1.48,0.51 m 1956.48,-286.99 c -5.66,-2.66 -11.32,-5.16 -16.99,-7.5 -5.97,-2.35 -11.99,-3.67 -18.01,-4.03 -6.64,-14.33 -14.33,-19.49 -22.96,-15.46 -8.36,4.33 -17.19,10.46 -26.53,18.47 -8.01,16.99 -13.16,37.5 -15.51,61.53 -2.65,24.33 -4.14,45.15 -4.49,62.5 1.33,1.64 2.35,3.63 3.01,5.97 0.66,2.35 2.15,3.52 4.49,3.52 1.99,3.01 2.5,7.5 1.53,13.47 -0.67,6.02 -1.02,11.53 -1.02,16.53 8.32,6.64 14.18,16.83 17.5,30.51 2.66,12.96 6.48,25.97 11.48,38.98 -6.32,28.01 -15.82,55.35 -28.47,81.99 -12.35,26.68 -26.99,51.99 -44.03,76.02 -16.99,24.33 -35.15,47.15 -54.49,68.47 -19.65,21.68 -39.33,42.19 -58.98,61.53 -1.33,5 -4.49,9.84 -9.49,14.49 -5.36,4.34 -8.52,8.83 -9.54,13.52 -12.65,10.97 -25.97,22.65 -40,35 -6.99,5.97 -13.98,12.14 -20.97,18.47 -6.99,6.02 -14.03,11.99 -21.02,18.01 -13.98,12.66 -27.5,24.65 -40.51,36.02 -12.65,11.99 -23.98,22.96 -33.98,32.96 -8.01,5 -15,8.01 -21.02,9.03 -4.64,3.32 -8.16,6.64 -10.46,10 -2.04,3.01 -4.69,6.17 -8.01,9.49 -6.99,4.34 -13.67,8.52 -20,12.5 -6.02,3.67 -11.84,7.34 -17.5,11.02 -11.02,7.3 -21.84,14.33 -32.5,20.97 -9.03,11.02 -22.85,21.99 -41.53,33.01 -18.63,11.33 -37.5,21.33 -56.48,30 -9.65,3.98 -19.49,7.85 -29.49,11.48 -10.67,2.7 -21.99,5.67 -34.03,9.03 -15.31,4.33 -31.13,8.32 -47.5,11.99 -3.63,1.02 -7.5,1.84 -11.48,2.5 -3.98,0.66 -7.85,1.33 -11.48,1.99 -8.01,1.33 -15.51,2.35 -22.5,3.01 -7.04,0.66 -13.68,0.82 -20,0.51 -6.02,-0.35 -11.68,-1.02 -17.04,-1.99 -11.64,2.65 -22.81,4.8 -33.47,6.48 -10.67,1.02 -21.02,1.84 -31.02,2.5 -18.98,1.02 -36.64,0.51 -53.01,-1.48 -15.97,-1.68 -31.32,-4.03 -45.97,-7.04 -14.34,-2.96 -28.67,-5.97 -43.01,-8.98 -18.32,1.68 -37.15,0.35 -56.48,-3.98 -9.03,-2.04 -17.86,-3.68 -26.53,-5 -8.32,-2.04 -15.97,-3.17 -23.01,-3.52 -1.99,-0.35 -2.96,-1.02 -2.96,-1.99 0,-1.02 0,-1.99 0,-3.01 -22.7,-4.34 -44.85,-8.67 -66.53,-13.01 -21.64,-3.98 -43.32,-9.33 -65,-15.97 -33.318,-4.03 -66.33,-9.03 -98.978,-15 -19.692,-4.69 -38.672,-10.67 -56.992,-18.01 -9.032,-3.67 -18.008,-7.5 -27.04,-11.53 -8.628,-4.33 -17.3,-8.63 -25.968,-12.96 -33.672,-18.68 -65.864,-37.5 -96.532,-56.53 -7.96,-9.65 -18.468,-17.81 -31.48,-24.49 -13.012,-6.33 -26.48,-13.83 -40.512,-22.5 -4.328,-3.01 -8.668,-6.02 -13.008,-8.98 -4.332,-3.01 -8.468,-6.37 -12.5,-10 -8.32,-7.04 -16.32,-13.87 -23.98,-20.51 -15,-14.34 -28.828,-25.35 -41.48,-33.01 -7.348,-10.35 -16.02,-21.99 -26.02,-35 -9.648,-13.01 -19.84,-26.48 -30.512,-40.51 -10.308,-13.98 -20.66,-27.34 -30.968,-40 -9.34,-13.01 -18.36,-23.98 -27.04,-33.01 -3.98,-7.65 -7.652,-14.49 -10.968,-20.46 -3.672,-6.02 -6.532,-12.86 -8.524,-20.51 -5.308,-8.67 -10.66,-17.85 -15.968,-27.5 -5.36,-9.69 -10.668,-19.49 -16.02,-29.49 -10.352,-20 -20.352,-40.67 -30,-62.04 -9.34,-21.32 -18.16,-43.16 -26.48,-65.46 -4.032,-11.37 -7.86,-22.86 -11.532,-34.54 -1.988,-5.31 -3.976,-10.97 -5.968,-16.99 l -4.54,-16.99 c -13.32,-46.68 -22.96,-93.16 -28.98,-139.49 -6.02,-46.02 -8.672,-89.85 -8.012,-131.53 -0.308,-7.65 0,-15 1.024,-21.99 0.968,-6.99 1.988,-13.98 3.008,-20.97 0.66,-6.68 1.128,-13.52 1.48,-20.51 0.66,-6.99 0.66,-14.18 0,-21.53 3.98,-10.31 7.852,-22.5 11.48,-36.48 3.68,-13.98 7.192,-28.83 10.508,-44.49 4.032,-15.35 7.352,-30.51 10,-45.51 3.364,-15 6.024,-28.67 8.012,-41.02 4.648,-12.652 9.648,-25 15,-36.992 5,-12.34 10.66,-23.16 16.988,-32.5 1.024,-10.66 3.672,-20.508 8.012,-29.488 4.648,-8.98 8.98,-18.32 13.012,-28.012 1.988,-5 3.976,-10 5.968,-15 2.04,-4.648 4.032,-9.488 6.02,-14.488 3.672,-9.648 7.148,-19.488 10.512,-29.488 3.976,-9.34 7.808,-18.832 11.476,-28.524 l 11.024,-28.976 c 3.976,-9.34 7.808,-18.832 11.476,-28.524 4.34,-9.328 8.672,-18.668 13.012,-28.008 8.672,-18.628 18.32,-36.992 28.98,-55 2.348,-2.96 3.168,-5 2.5,-5.968 -0.308,-1.024 -0.968,-1.992 -1.992,-3.012 13.364,-19.34 27.66,-38.98 43.012,-58.98 47.66,-53.36 100.16,-101.372 157.5,-144.032 3.012,-1.636 6.02,-3.156 8.98,-4.488 8.68,-4.34 17.192,-8.52 25.508,-12.5 16.992,-7.34 33.672,-14.488 50,-21.48 6.992,-5 14.184,-9.54 21.532,-13.52 55.66,-20.66 111.992,-38.52 168.98,-53.52 56.988,-14.64 113.32,-30 168.98,-45.968 6.02,-1.992 12.19,-3.524 18.52,-4.492 6.33,-0.36 12.66,-0.86 18.98,-1.532 12.7,-1.328 24.85,-3.668 36.53,-6.988 34.65,0.66 70.66,0 108.01,-1.988 18.63,-1.024 37.14,-1.532 55.46,-1.532 9.03,-0.308 17.86,-0.46 26.53,-0.46 8.98,0.312 17.65,0.66 25.97,0.968 7.04,2.66 14.34,4.692 22.04,6.024 7.3,1.636 15,3.008 22.96,3.976 16.02,1.684 31.84,3.172 47.5,4.492 3.36,-0.66 4.18,-1.48 2.5,-2.5 -1.99,-1.32 -3.47,-2.808 -4.49,-4.492 10.67,6.024 21.68,10 33.01,11.992 11.02,2.352 22.5,3.68 34.49,4.032 11.68,0.66 23.67,1.828 36.02,3.468 11.99,1.68 23.98,5 35.97,10 -0.66,-2.648 0.36,-3.628 3.01,-2.96 2.66,0.312 4.69,0.312 6.02,0 8.01,2.96 15.51,5.82 22.5,8.468 54.65,22.352 106.64,48.832 155.97,79.492 25.67,22.352 51.02,44.34 76.02,66.02 19.65,16.02 38.52,32.148 56.48,48.52 17.7,16.64 34.69,33.468 51.02,50.46 16.02,16.68 31.17,33.52 45.51,50.508 7.34,8.364 14.33,16.84 20.97,25.512 3.36,4.34 6.68,8.52 10,12.5 3.01,4.34 6.02,8.672 9.03,13.012 4.33,6.636 8.47,13.16 12.5,19.488 3.98,6.68 9.14,11.68 15.51,15 -10,-26.328 -25.36,-53.52 -46.02,-81.48 74.34,89.64 131.99,189.8 173.01,300.46 41.33,111.02 62.15,229.03 62.5,354.03 0,46.64 -3.01,92.5 -9.03,137.5 m -71.99,508.01 c 1.33,0.31 3.17,-0.67 5.51,-3.01 1.99,-1.99 3.52,-1.99 4.49,0 -3.67,5 -6.17,8.98 -7.5,11.99 -1.33,3.32 -4.14,7.66 -8.47,13.01 -0.67,-2.66 0,-6.17 1.99,-10.51 1.99,-4.34 3.32,-8.16 3.98,-11.48 m 16.53,-45 c -0.36,-5 0.97,-11.18 3.98,-18.52 3.01,-7.34 6.48,-15.16 10.51,-23.52 3.98,-8.32 7.81,-16.32 11.48,-23.98 3.67,-8.01 6.02,-15 6.99,-21.02 3.36,-2.65 6.37,-2.65 9.03,0 -5,10 -9.18,18.52 -12.5,25.51 -3.36,7.35 -6.17,14.03 -8.52,20 -4.65,11.33 -11.64,25.16 -20.97,41.53 m 308.47,-499.54 c -2.65,-20 -7.81,-34.14 -15.51,-42.5 2.04,-16.32 0.36,-28.63 -5,-36.99 -2.3,7.35 -4.49,11.33 -6.48,11.99 -1.68,0.67 -3.67,0.51 -6.02,-0.46 -1.99,-1.02 -4.8,-0.51 -8.47,1.48 -1.02,6.33 -1.53,11.02 -1.53,13.98 0.36,3.36 0.86,7.7 1.53,13.01 -5.35,8.67 -11.17,14.34 -17.5,16.99 -6.33,2.35 -13.01,5.2 -20,8.52 -6.99,3.67 -13.67,11.33 -20,23.01 -2.35,10.97 -5,19.84 -8.01,26.48 -3.32,6.99 -6.48,14.49 -9.49,22.5 -3.01,8.36 -5.67,19.69 -8.01,34.03 -3.01,-2.35 -3.83,-8.36 -2.5,-18.01 1.68,-10 3.01,-19.85 3.98,-29.49 -1.99,-1.02 -3.32,-2.19 -3.98,-3.52 -1.02,-1.68 -2.34,-0.82 -3.98,2.5 -2.04,-18.67 -5.51,-33.32 -10.51,-43.98 -5,-10.67 -9.49,-22.04 -13.52,-34.03 -8.01,-3.32 -15,-3.47 -20.97,-0.51 1.32,-21.99 1.99,-43.98 1.99,-65.97 0,-9.34 0,-18.52 0,-27.5 0.97,2.65 1.99,5.15 3.01,7.5 5,-2.66 7.14,-8.01 6.48,-16.02 -0.35,-8.01 -1.17,-16.17 -2.5,-24.49 -1.02,-8.01 0,-13.52 3.01,-16.48 -0.67,-4.03 -1.68,-7.04 -3.01,-9.03 -1.02,-2.34 -1.99,-4.65 -3.01,-6.99 -1.99,-46.33 -10.51,-87.5 -25.51,-123.52 -24.64,-122.3 -67.81,-235.46 -129.49,-339.492 -1.99,-4.328 -3.83,-8.668 -5.51,-13.008 1.37,-4.332 2.04,-10.46 2.04,-18.468 0,-7.66 -2.86,-17.5 -8.52,-29.492 -1.33,-10.668 -3.01,-22.348 -5,-35 -2.34,-12.04 -5.35,-25.2 -8.98,-39.54 -4.03,-14.332 -9.34,-29.14 -16.02,-44.492 -3.67,-7.648 -7.5,-15.508 -11.48,-23.468 -4.69,-7.7 -9.54,-15.508 -14.54,-23.52 -6.64,-6.02 -13.16,-11.48 -19.49,-16.48 -6.33,-4.688 -12.65,-9.032 -18.98,-13.008 -11.99,-7.66 -23.52,-13.832 -34.49,-18.524 -22.7,-8.976 -44.34,-15.968 -65,-20.968 -23.01,-10.36 -45.51,-18.872 -67.5,-25.508 -7.7,-2.352 -15.2,-4.692 -22.5,-6.992 -72.35,-53.008 -150.36,-97.04 -234.03,-132.04 -37.34,-22.648 -75,-42.808 -113.01,-60.46 -4.64,0 -11.13,-1.372 -19.49,-4.032 -10,-8.976 -23.47,-15.968 -40.51,-20.968 -7.96,-2.7 -16.32,-5.508 -25,-8.52 -8.98,-2.34 -17.65,-5.16 -25.97,-8.52 -5.67,-1.32 -8.67,-1.128 -9.03,0.508 -0.66,1.684 -3.32,1.992 -7.96,1.024 -13.68,-6.68 -29.85,-11.68 -48.52,-15 -18.67,-3.364 -38.16,-5.672 -58.52,-6.992 -20.31,-1.02 -40.15,-1.68 -59.49,-2.04 -19.33,-0.308 -36.99,-1.48 -53.01,-3.468 -5,0.66 -10.15,1.328 -15.46,1.988 -5,1.02 -10.2,1.84 -15.51,2.5 -10.35,1.332 -20.67,2.5 -31.02,3.52 -21.33,2.3 -42.5,4.8 -63.47,7.5 -20.67,2.96 -40.36,6.48 -59.03,10.46 -18.67,4.692 -35.31,10 -50.002,16.02 -37.34,10.352 -73.828,22.34 -109.488,36.02 -35.352,13.98 -68.828,28.82 -100.512,44.492 -21.636,10.308 -42.808,19.488 -63.468,27.5 -10.36,3.976 -20.668,8.16 -31.02,12.5 -10,4.648 -19.84,9.84 -29.488,15.508 -6.024,3.628 -13.524,9.14 -22.5,16.48 -9.032,7.34 -16.84,13.672 -23.524,18.98 -4.648,3.008 -9.648,6.02 -15,9.032 -5,3.32 -9.136,6.328 -12.5,8.976 -10,10.672 -16.828,20.672 -20.508,30 -3.98,9.344 -8.468,19.184 -13.468,29.492 -5.352,10.668 -14.852,22.86 -28.524,36.532 -4.648,5 -7.808,6.828 -9.488,5.508 -1.68,-1.372 -3.98,-1.02 -6.988,0.968 -4.692,5 -9.692,10.512 -15,16.532 -5.352,5.968 -10.512,11.992 -15.512,17.96 -10.66,11.68 -16.68,21.532 -18.012,29.54 -14.328,15.66 -28.16,30.968 -41.476,45.968 -6.992,7.352 -13.672,14.852 -20,22.5 -6.684,7.352 -13.012,15 -19.032,23.012 -6.32,8.012 -12.5,16.02 -18.468,23.98 -5.672,8.36 -11.172,16.68 -16.532,25 -11.32,17.348 -21.32,35.86 -30,55.508 -15.66,24.692 -29.64,51.332 -41.992,80 -12.648,28.672 -23.828,57.66 -33.468,86.992 -5,15 -9.848,29.692 -14.54,44.032 -4.332,14.648 -8.98,28.828 -13.98,42.5 -8.672,28.316 -18.012,54.648 -28.012,78.978 -1.636,10 -3.468,18.67 -5.508,26.02 -1.992,7.65 -3.82,14.84 -5.46,21.48 -2.04,6.68 -3.872,13.83 -5.508,21.53 -1.684,7.65 -2.66,16.64 -3.012,26.99 -3.98,-12.66 -7.148,-26.53 -9.488,-41.53 -2.66,-15.31 -4.34,-31.13 -5,-47.5 5.968,-30.31 10.508,-57.808 13.468,-82.5 3.008,-25 5.508,-49.492 7.5,-73.468 1.68,-11.684 3.52,-23.672 5.508,-36.024 0.672,-6.328 1.684,-12.5 3.012,-18.468 1.68,-6.372 3.32,-12.7 5,-19.032 3.32,-12.648 7.5,-25.816 12.5,-39.488 5.352,-13.672 11.84,-27.852 19.488,-42.5 L 200,730.512 c 6.68,-10.352 11.02,-20.352 13.012,-30 2.34,-9.692 5.816,-19.852 10.508,-30.512 10,-16.988 20.82,-31.48 32.5,-43.52 12.3,-11.64 23.628,-22.3 33.98,-31.992 1.02,-7.34 2.852,-14.84 5.512,-22.5 -9.34,4.34 -18.832,12.352 -28.524,24.032 -10,11.64 -19.136,22.652 -27.5,32.96 -6.328,7.348 -13.16,15.86 -20.508,25.508 -7.3,10 -15.152,25 -23.468,45 -4.692,11.684 -8.012,23.012 -10,34.032 -1.992,11.32 -5,22.652 -9.032,33.98 -4.332,10.66 -8.82,21.328 -13.468,31.988 -4.692,11.024 -6.84,19.34 -6.532,25 -3.98,9.032 -7.808,16.84 -11.48,23.524 -1.328,8.316 -2.34,15.968 -3.012,23.008 -0.308,6.64 -2.5,16.128 -6.476,28.468 3.008,10.352 3.828,22.66 2.5,36.992 -1.332,14.692 -3.524,30.668 -6.532,48.008 -3.32,17.352 -6.48,34.852 -9.492,52.502 -1.328,8.67 -2.648,17.35 -3.976,26.02 -1.024,8.32 -1.84,16.48 -2.5,24.49 -1.332,6.02 -1.024,8.98 0.968,8.98 2.04,0 3.168,1.37 3.52,4.03 -1.02,6.33 -1.988,12.65 -3.012,18.98 -0.968,6.33 -1.828,12.66 -2.5,19.03 -1.328,12.3 -2.5,24.49 -3.468,36.48 -1.02,23.98 -1.372,47.5 -1.02,70.51 0.66,23.01 1.84,45.82 3.52,68.47 0.66,11.02 1.32,22.35 1.992,34.03 0.968,11.33 1.988,22.81 3.008,34.49 1.992,30.35 4.8,60.66 8.468,91.02 3.364,30.31 11.532,64.14 24.492,101.48 1.372,6.02 3.168,9.49 5.508,10.51 1.992,0.97 3.832,2.15 5.512,3.47 1.02,12.04 3.52,25.86 7.5,41.53 4.648,15.31 8.32,29.49 11.02,42.5 -2.7,-0.67 -5.86,-3.17 -9.54,-7.5 -3.628,-4.03 -6.992,-7.5 -10,-10.51 -2.96,-3.01 -5.152,-2.85 -6.48,0.51 4.34,5.31 8.52,9.49 12.5,12.5 3.98,2.65 8.16,5.97 12.5,10 3.98,9.65 8.32,19.14 13.012,28.47 3.976,9.34 8.008,18.68 11.988,28.01 7.66,18.36 15.352,36.84 23.012,55.51 8.008,18.32 16.328,36.84 25,55.51 9.328,18.67 19.328,37.15 30,55.51 -4.032,1.64 -8.832,-0.51 -14.492,-6.53 -5.668,-5.97 -10.86,-9.33 -15.508,-10 2.648,1.99 5.508,5.35 8.468,10 3.008,5 6.18,10 9.54,15 -3.36,1.02 -7.192,-0.15 -11.532,-3.47 -4.328,-3.01 -8.828,-6.84 -13.468,-11.53 -2.04,-4.33 -1.372,-5.66 1.992,-3.98 3.008,1.99 3.828,0.66 2.5,-4.03 -6.684,-9.33 -12.66,-16.13 -18.012,-20.46 -5.352,-4.34 -9.84,-5 -13.52,-2.04 -5.308,-8.32 -9.8,-15.46 -13.468,-21.48 -4.032,-5.66 -8.524,-8.83 -13.524,-9.49 -8.316,-12.66 -15.66,-25 -21.988,-36.99 -6.328,-12.04 -12.34,-23.68 -18.012,-35 -10.66,-22.7 -20.148,-44.69 -28.468,-66.02 -4.34,-10.66 -8.52,-21.17 -12.5,-31.48 -4.34,-10.36 -8.52,-20.86 -12.5005,-31.53 -4.0312,-10.66 -8.3593,-21.33 -13.0078,-31.99 -4.0312,-11.02 -8.5234,-22.34 -13.5234,-33.98 -7.3399,-25 -14.8399,-52.35 -22.5,-82.04 -3.3164,-14.33 -6.6367,-27.96 -10,-40.97 -1.6367,-6.68 -3.1602,-13.01 -4.4883,-19.03 -1.6797,-5.66 -3.1602,-11.13 -4.4883,-16.48 -0.3515,-15 -1.9922,-32.5 -5,-52.5 -2.3515,-20 -5.1601,-40.16 -8.5234,-60.51 -2.3399,9.03 -2.5,17.5 -0.5078,25.51 2.3476,8.32 4.1797,16.48 5.5078,24.49 4.3398,36.99 9.8515,74.69 16.5312,113.01 6.3203,38.01 15.3086,74.84 26.9922,110.51 5.9688,17.34 12.3399,34.33 18.9766,50.97 6.6836,17.04 14.8515,38.36 24.4917,64.03 1.372,3.98 2.192,7.5 2.5,10.51 0.36,3.32 1.18,7.14 2.5,11.48 11.372,32.34 26.18,64.34 44.54,96.02 18.628,31.32 36.48,62.65 53.468,93.98 -10.66,0.66 -22.648,-6.48 -35.968,-21.48 -22.04,-37.7 -38.52,-69.34 -49.54,-95 -10.968,-25.67 -21.128,-51.02 -30.4605,-76.02 -5.3593,8.98 -5.8593,21.33 -1.5312,36.99 4.3398,15.67 10.8637,34.49 19.4917,56.53 4.34,6.99 8.68,13.82 13.008,20.46 4.34,6.37 8.364,11.02 11.992,14.03 36.02,72.34 77.5,138.67 124.54,198.98 47.3,61.02 104.492,115 171.48,161.99 -2.34,-2.65 -2.66,-3.47 -1.02,-2.5 1.68,1.02 3.52,2.35 5.508,4.03 -5.66,-5.67 -11.828,-12.19 -18.468,-19.49 -7.04,-7.04 -13.52,-14.03 -19.54,-21.02 1.02,3.98 4.692,8.98 11.02,15 -6.988,-1.68 -13.16,-6.17 -18.52,-13.52 -5,-7.3 -10.308,-10.82 -15.968,-10.46 -4.032,-4.69 -5.352,-6.84 -4.032,-6.53 1.372,0 3.008,-0.31 5,-0.97 -5,-3.36 -9.8,-6.37 -14.492,-9.03 -4.328,-2.65 -10.308,-8.47 -18.008,-17.5 -2.96,-3.98 -4.8,-7.5 -5.46,-10.51 -0.668,-2.96 -1.18,-5.82 -1.532,-8.47 6.024,5.66 10.16,10.31 12.5,13.98 2.352,3.67 6.332,8.36 11.992,14.03 3.36,-0.36 7.04,0.46 11.02,2.5 4.34,1.99 8.828,3.82 13.52,5.46 0.968,2.04 1.64,3.87 1.992,5.51 0.308,1.33 2.148,3.52 5.508,6.53 5.968,5.97 7.96,7.3 5.968,3.98 -1.636,-3.32 -2.5,-5.82 -2.5,-7.5 10,6.99 20.352,15 31.024,23.98 10.968,8.68 16.828,16.84 17.5,24.54 8.316,3.63 19.488,9.8 33.468,18.47 13.68,8.36 26.84,17.66 39.54,28.01 12.3,10.35 20.46,20.16 24.492,29.49 6.328,2.35 13.16,5.86 20.508,10.51 7.3,4.34 15.308,9.34 23.98,15 8.32,5.66 17.148,11.84 26.48,18.52 9.34,5.97 18.872,12.3 28.52,18.98 19.648,13.01 39.18,23.98 58.52,33.01 19.332,9.33 36.48,14.49 51.48,15.51 20.352,10.97 39.34,19.64 56.988,25.97 8.672,3.36 17.5,6.33 26.532,9.03 8.628,2.3 17.808,4.49 27.5,6.48 36.64,15.66 77.14,29.65 121.48,41.99 44.34,12.35 90.51,21.53 138.52,27.5 47.96,6.33 95.15,9.03 141.48,8.01 46.33,-1.33 89.34,-5.35 128.98,-11.99 14.69,1.33 31.53,1.48 50.51,0.51 18.67,-1.68 40.16,-5 64.49,-10 14.69,-1.37 27.5,-1.68 38.52,-1.02 11.02,0.66 21.33,1.84 31.02,3.52 9.33,1.32 18.98,2.5 28.98,3.47 10,1.02 21.17,1.17 33.52,0.51 -1.37,2.34 -4.03,4.49 -8.01,6.48 -4.34,2.04 -8.67,4.03 -13.01,6.02 7.66,0.66 15.66,-1.48 23.98,-6.48 8.36,-4.69 15.51,-7.19 21.53,-7.5 -0.35,2.96 -3.17,5.82 -8.52,8.47 -5.66,3.01 -12.65,5.86 -20.97,8.52 -8.36,3.01 -16.68,5.97 -25,8.98 -8.01,3.36 -14.54,7.19 -19.54,11.53 -26.64,6.64 -49.49,13.16 -68.47,19.49 -19.03,5.31 -40.16,10 -63.52,13.98 -11.64,1.02 -22.5,0.86 -32.5,-0.51 -10.31,-0.97 -20.66,-1.32 -30.97,-0.97 -14.69,0.66 -28.01,2.15 -40,4.49 -12.04,2.34 -24.18,2.66 -36.53,1.02 -3.32,0.97 -5.31,2.5 -5.97,4.49 -0.67,1.99 -3.52,3.32 -8.52,3.98 -11.68,-2.34 -24.65,-3.67 -38.98,-3.98 -14.03,-0.67 -29.03,-1.17 -45,-1.53 -32.04,-0.31 -64.85,-3.32 -98.52,-8.98 -34.34,-6.68 -66.02,-15.35 -95,-26.02 -28.98,-10 -55.352,-20.66 -78.98,-31.99 -4.34,-1.33 -7.86,-1.99 -10.508,-1.99 -2.352,-0.35 -5,-0.66 -8.012,-1.02 -9.648,-5.66 -18.52,-10 -26.48,-12.96 -8.36,-3.01 -18.36,-7.04 -30,-12.04 1.32,3.01 1.48,4.69 0.46,5 -0.968,0.36 -2.14,1.84 -3.468,4.54 1.988,0 3.828,-0.2 5.508,-0.51 1.64,-0.35 4.64,0.15 8.98,1.48 6.02,1.68 9.488,3.52 10.512,5.51 1.328,1.99 3.316,3.83 5.968,5.51 9.34,0.66 18.52,2.65 27.5,5.97 9.032,3.01 18.008,6.53 27.04,10.51 8.98,4.03 17.96,8.01 26.992,11.99 8.976,3.68 18.008,6.37 26.988,8.01 12.34,9.34 27.34,17.35 45,24.03 17.34,6.32 37.66,11.83 61.02,16.48 20.31,3.01 40.46,4.49 60.46,4.49 20.36,-0.31 40.67,-0.51 61.02,-0.51 6.99,0.36 14.34,0.51 21.99,0.51 7.35,0.35 14.69,0.35 21.99,0 15.36,0.35 30.51,0.51 45.51,0.51 15.35,-0.66 30.16,-1.33 44.49,-1.99 14.34,-0.67 27.86,-1.99 40.51,-4.03 3.01,0 4.49,0.67 4.49,2.04 0.36,0.97 2.19,1.48 5.51,1.48 17.66,0 35,-1.48 51.99,-4.49 17.04,-3.01 33.68,-6.84 50,-11.53 32.7,-10.97 64.69,-22.81 96.02,-35.46 10,-3.68 20.66,-7.04 31.99,-10 11.33,-3.36 22.5,-6.84 33.52,-10.51 11.33,-3.36 21.64,-7.5 30.97,-12.5 9.69,-5 17.7,-11.02 24.03,-18.01 40,-10.35 79.84,-25 119.49,-43.98 39.65,-19.34 76.33,-41.18 110,-65.51 33.67,-24.34 61.48,-49.34 83.52,-75 15.66,-11.68 30,-23.36 42.96,-35 13.01,-11.99 23.36,-22.85 31.02,-32.5 17.66,-13.01 33.01,-26.02 46.02,-39.03 12.65,-13.32 24.33,-26.64 35,-40 10.97,-13.32 22.14,-27.3 33.47,-41.99 6.02,-6.99 12.5,-14.33 19.49,-21.99 6.68,-7.66 13.87,-15.66 21.53,-23.98 3.67,-1.37 7.15,-2.5 10.51,-3.52 3.32,-1.02 6.13,-0.82 8.47,0.51 10.35,-13.67 18.01,-25.86 23.01,-36.53 5.35,-10.97 8.83,-20.46 10.51,-28.47 7.34,-7.35 14.49,-15.86 21.48,-25.51 7.35,-9.65 14.49,-19.65 21.53,-30 13.63,-21.68 26.13,-39.18 37.5,-52.5 1.64,-7.66 6.32,-18.16 13.98,-31.48 7.66,-13.36 14.34,-24.03 20,-32.04 1.68,2.04 2.34,5 1.99,9.03 0,4.33 2.19,4.33 6.53,0 1.99,-6.99 1.64,-11.68 -1.02,-14.03 -2.34,-1.99 -3.83,-5.15 -4.49,-9.49 6.99,-9.65 13.16,-20.82 18.47,-33.47 5,-13.01 5.67,-21.68 2.04,-26.02 5.31,-11.99 10.15,-23.98 14.49,-36.02 3.98,-11.99 7.5,-23.82 10.51,-35.46 6.32,-23.68 11.48,-47.5 15.46,-71.53 1.02,-5.97 2.04,-12.15 3.01,-18.47 1.02,-6.02 1.84,-12.19 2.5,-18.52 1.99,-12.66 3.83,-25.51 5.51,-38.52 1.99,-12.96 3.83,-26.64 5.51,-40.97 1.99,-13.67 3.98,-28.17 5.97,-43.52 -0.66,-21.99 -2.14,-43.01 -4.49,-63.01 m -237.5,-894.492 c -6.33,0.352 -14.65,-5 -25,-15.968 3.01,-0.668 6.84,1.128 11.53,5.46 5,4.34 9.49,7.86 13.47,10.508 m -435,-285.968 c 11.02,6.992 17.66,13.16 20,18.468 -6.64,-3.668 -11.17,-6.988 -13.47,-10 -2.04,-2.648 -4.18,-5.508 -6.53,-8.468 m -57.5,-34.54 c 6.99,3.68 14.34,7.352 21.99,11.02 8.01,3.98 12.04,7.34 12.04,10 -6.37,-5 -13.52,-8.98 -21.53,-11.988 -8.32,-3.012 -12.5,-6.024 -12.5,-9.032 M 1765,130 c -4.34,-1.328 -7.66,-1.84 -10,-1.48 -2.34,0.66 -6.33,-0.36 -11.99,-3.008 0.31,-2.352 3.47,-3.012 9.49,-1.992 5.66,0.968 9.84,3.16 12.5,6.48 m -37.5,-25 c 3.32,3.012 3.52,4.648 0.51,5 -3.01,0.66 -6.99,0.352 -11.99,-1.02 0.31,-1.992 1.13,-3.628 2.5,-5 1.64,-0.968 4.64,-0.66 8.98,1.02 m -55,-19.4883 c 3.67,0.9688 6.48,2.1485 8.52,3.4688 1.64,1.3711 4.33,2.6992 7.96,4.0312 -4.33,-3.0117 -4.64,-4.1797 -0.97,-3.5234 3.67,1.0234 8.16,2.5 13.47,4.4922 5.36,2.3515 8.17,4.1797 8.52,5.5078 -6.02,-2.6485 -10.35,-3.668 -13.01,-3.0078 0,1.0195 0.67,2.039 1.99,3.0078 1.02,1.0237 1.18,1.9917 0.51,3.0117 -5.31,-3.3203 -11.48,-6.4805 -18.47,-9.4883 -7.04,-3.0117 -14.54,-5.8633 -22.5,-8.5234 -16.02,-5.9688 -32.86,-12.1485 -50.51,-18.4688 -0.35,-3.3593 1.33,-3.6797 5,-1.0195 3.98,2.6602 6.99,3.3203 8.98,1.9883 -3.98,-2.6485 -10.15,-5.1485 -18.47,-7.5 -8.36,-1.9883 -12.5,-1.3281 -12.5,1.9922 -27.04,-9.6407 -53.01,-17.1407 -78.01,-22.5 -25.35,-5.3086 -48.36,-12.1407 -69.03,-20.461 C 1433.32,21.1719 1422.66,20 1411.99,15 c -10.31,-4.6484 -17.15,-8.98047 -20.51,-13.01172 17.7,2.66016 33.17,5.51172 46.53,8.52342 13.32,3.0078 25.51,6.168 36.48,9.4883 11.33,3.3203 22.66,6.4805 34.03,9.4883 11.32,3.0117 23.82,5.8633 37.5,8.5234 8.32,5.9688 20.46,9.4883 36.48,10.5078 16.02,0.9688 28.67,3.6289 38.01,7.961 -3.67,1.0195 -3.83,2.3515 -0.51,4.0312 3.32,1.6367 8.32,3.8281 15,6.4766 6.68,2.3515 13.16,4.8515 19.49,7.5 6.68,2.3515 11.68,4.4922 15,6.5312 2.66,-0.6679 5,-1.5312 6.99,-2.5 1.68,-1.0195 4.54,-1.3711 8.52,-1.0195 0,1.332 1.84,2.6602 5.51,3.9805 3.32,1.3711 5.31,2.6992 5.97,4.0312 -7.96,-3.3633 -12.65,-4.6914 -13.98,-4.0312 -1.33,0.6679 -1.99,1.6797 -1.99,3.0078 -0.35,1.332 -3.01,1.6836 -8.01,1.0234 M 526.48,246.48 c 8.008,-3.98 15.2,-8.628 21.532,-13.98 6.328,-5.352 13.316,-9.34 20.968,-11.988 -4.64,4.648 -12.3,10.968 -22.96,18.976 -10.668,7.66 -17.192,10 -19.54,6.992 m 12.5,46.02 c -15.308,9.34 -29.492,20.352 -42.5,33.012 -13.32,12.34 -27.3,24.136 -41.992,35.508 l -3.468,-3.52 c 5.66,-9.34 12.808,-17.66 21.48,-25 8.32,-7.66 17.5,-16.328 27.5,-26.02 6.328,-1.992 13.16,-5 20.512,-8.98 7.34,-3.668 13.468,-5.352 18.468,-5 M 350,426.988 C 298.672,487.34 259.84,546.68 233.52,605 c -6.02,8.98 -10.86,18.012 -14.54,26.988 -3.628,8.672 -8.468,16.172 -14.492,22.5 3.364,1.992 2.66,7.66 -1.988,16.992 -4.34,9.34 -8.98,17.5 -13.98,24.54 -3.008,0.968 -6.18,1.48 -9.54,1.48 -3.32,-0.352 -5.152,-1.68 -5.46,-3.98 5.66,-10.668 11.32,-21.532 16.992,-32.5 5.308,-11.02 10.66,-21.68 15.968,-32.04 4.692,-10.308 9.032,-20.152 13.008,-29.492 4.032,-8.668 7.192,-16.636 9.492,-23.976 4.692,-8.012 9.34,-16.332 14.032,-25 4.648,-8.364 9.488,-16.992 14.488,-26.024 5,-8.668 10.16,-17.648 15.512,-26.988 5.308,-8.668 10.816,-17.5 16.476,-26.48 5.672,-9.032 11.532,-17.86 17.5,-26.532 6.332,-8.316 12.852,-16.476 19.492,-24.488 6.68,-8.32 13.68,-16.02 21.02,-23.012 6.988,-7.34 14.488,-14.136 22.5,-20.508 4.648,-5.968 9.34,-11.832 13.98,-17.5 5,-5.308 10.2,-10.308 15.508,-15 10.352,-9.332 20.864,-18.32 31.532,-26.992 21.64,-15.968 44.14,-34.136 67.5,-54.488 4.332,-1.988 8.628,-4.18 12.96,-6.48 4.692,-2.348 7.192,-1.372 7.5,2.96 -30.308,26.02 -59.8,53.168 -88.468,81.532 C 401.84,368.52 375,397.34 350,426.988 M 43.5195,995.512 c -3.3593,12.338 -6.8398,24.138 -10.5078,35.508 -4.0312,11.32 -6.9922,23.16 -9.0312,35.46 -2.3008,12.35 -4.1407,25.51 -5.461,39.54 -1.0195,13.98 -1.8398,28.16 -2.5,42.5 -0.3593,7.3 -0.6679,14.49 -1.0195,21.48 -0.3516,6.99 -0.6602,13.98 -1.0195,21.02 -0.3086,13.98 -1.4805,27.14 -3.4688,39.49 3.3164,7.65 4.3281,13.32 3.0078,16.99 -1.6797,3.67 -1.3711,11.68 0.9688,23.98 -1.6367,2.35 -3.668,4.54 -5.96877,6.53 -2.03906,1.99 -3.67969,1.48 -5,-1.53 C 1.83984,1275.16 0.660156,1272.15 0,1267.5 1.32813,1253.83 1.83984,1241.17 1.48047,1229.49 1.83984,1217.85 3.01172,1205.82 5,1193.52 1.01953,1157.15 0.820313,1121.48 4.48828,1086.48 c 3.67188,-35 10.00002,-69.8 19.03122,-104.492 8.9805,-35 19.8008,-70.66 32.5,-106.988 12.6524,-36.68 26.6407,-75.512 41.9922,-116.48 2.6483,-3.36 5.5083,-7.348 8.4683,-12.04 3.36,-4.332 6.68,-9.332 10,-15 6.372,-15.968 13.36,-33.16 21.02,-51.48 8.012,-18.32 16.84,-36.172 26.48,-53.52 9.692,-17.3 19.848,-32.652 30.508,-45.968 10.672,-13.012 21.532,-22.352 32.5,-28.012 -11.988,21.988 -25,45.512 -38.976,70.512 -14.34,25 -28.172,50.66 -41.532,76.988 -21.992,46.02 -41.48,94.488 -58.4683,145.512 -16.9922,50.66 -31.8398,100.66 -44.4922,150 M 208.98,1991.99 c 7.04,9.34 8.168,14.49 3.52,15.51 -6.988,-9.65 -8.16,-14.84 -3.52,-15.51 m 427.04,358.52 c -4.34,-2.35 -5.36,-2.5 -3.008,-0.51 1.988,1.99 3.976,3.83 5.968,5.51 1.68,1.99 -0.152,1.64 -5.46,-1.02 0.66,-1.33 -1.68,-3.32 -7.04,-5.97 -5,-2.35 -9.14,-4.69 -12.5,-7.04 0.36,-1.99 3.68,-1.64 10,1.02 6.372,2.66 10.36,5.35 12.04,8.01 m 790,-161.53 c -4.34,2.04 -9.54,3.68 -15.51,5 -5.67,1.37 -11.99,2.04 -19.03,2.04 -13.63,0.66 -27.3,0 -40.97,-2.04 -13.67,-1.99 -25.16,-4.33 -34.49,-6.99 1.32,-3.67 3.47,-6.99 6.48,-10 15.35,-0.97 28.52,-0.82 39.49,0.51 10.67,0.66 21.02,1.84 31.02,3.52 3.01,-3.36 9.65,-5.86 20,-7.5 10.31,-2.35 19.49,-3.52 27.5,-3.52 -0.35,8.32 -5.16,14.65 -14.49,18.98 M 1608.98,2530 c -0.97,5.35 -8.32,10 -21.99,13.98 -0.31,-2.65 2.35,-5 8.01,-6.99 5.66,-1.99 10.35,-4.33 13.98,-6.99 m 623.01,-407.5 c 34.03,-29.34 66.53,-64.34 97.5,-105 31.02,-40.35 58.67,-84.65 83.01,-133.01 2.66,-2.65 5.16,-4.65 7.5,-5.97 2.34,-1.02 5.16,-5.36 8.52,-13.01 3.98,-8.36 6.13,-15 6.48,-20 0.35,-5 3.01,-12.19 8.01,-21.53 5,2.04 5.97,7.86 3.01,17.5 -2.7,9.69 -5.2,19.03 -7.5,28.01 -2.35,9.34 -0.67,14.49 5,15.51 -29.03,43.98 -59.18,86.68 -90.51,128.01 -31.02,40.97 -65.51,80.66 -103.52,118.98 -10.66,6.02 -18.98,6.99 -25,3.01 2.66,-3.01 5,-5.66 6.99,-8.01 2.04,-2.65 2.19,-4.14 0.51,-4.49 m 218.52,-869.49 c 0,-5.67 0.15,-11.33 0.51,-16.99 -1.68,-0.67 -3.01,-0.36 -4.03,0.97 -0.97,1.33 -1.99,2.35 -3.01,3.01 0.67,3.32 1.37,6.48 2.04,9.49 0.97,2.66 2.5,3.83 4.49,3.52" /><path
         id="path16"
         style="fill:#234773;fill-opacity:1;fill-rule:evenodd;stroke:none"
         d="m 756.641,1641.41 c -43.481,0 -77.262,-13.99 -101.411,-41.92 -24.14,-27.97 -36.21,-66.25 -36.21,-114.92 0,-48.09 12.582,-86.76 37.742,-116.02 25.148,-29.21 59.218,-43.86 102.109,-43.86 54.957,0 96.289,27.22 123.938,81.64 l 43.441,-21.76 c -16.129,-33.79 -38.828,-59.49 -68.09,-77.15 -29.25,-17.62 -63.199,-26.44 -101.832,-26.44 -39.527,0 -73.75,8.2 -102.617,24.64 -28.871,16.45 -50.902,39.93 -66.012,70.47 -15.16,30.55 -22.699,66.72 -22.699,108.48 0,62.58 16.879,111.64 50.66,147.07 33.828,35.47 80.629,53.2 140.391,53.2 41.801,0 76.719,-8.16 104.769,-24.49 28.008,-16.33 48.629,-40.58 61.84,-72.69 l -50.43,-16.72 c -9.109,22.85 -23.71,40.31 -43.871,52.38 -20.16,12.07 -44.058,18.09 -71.718,18.09 z m 279.919,-354.89 h -50.1094 v 413.402 h 50.1094 z m 331.49,150.98 c 0,-52.73 -11.6,-91.99 -34.85,-117.81 -23.2,-25.82 -56.91,-38.71 -101.09,-38.71 -44.02,0 -77.27,13.4 -99.73,40.23 -22.46,26.84 -33.71,65.63 -33.71,116.29 0,103.98 45.04,156.02 135.12,156.02 46.05,0 79.92,-12.7 101.64,-38.05 21.76,-25.35 32.62,-64.65 32.62,-117.97 z m -52.66,0 c 0,41.6 -6.17,71.84 -18.51,90.66 -12.35,18.87 -33.13,28.29 -62.27,28.29 -29.34,0 -50.55,-9.61 -63.63,-28.83 -13.09,-19.22 -19.65,-49.26 -19.65,-90.12 0,-39.73 6.44,-69.57 19.37,-89.53 12.89,-19.96 33.17,-29.96 60.86,-29.96 30.08,0 51.56,9.65 64.46,28.98 12.93,19.3 19.37,49.49 19.37,90.51 z m 113.63,150.43 h 50.43 v -191.09 c 0,-19.85 1.96,-35.28 5.86,-46.22 3.91,-10.97 10.12,-18.86 18.67,-23.71 8.52,-4.8 21.06,-7.22 37.58,-7.22 24.14,0 43.21,8.28 57.11,24.8 13.95,16.53 20.9,39.46 20.9,68.79 v 174.65 h 50.12 V 1350.9 c 0,-35.12 0.58,-56.56 1.68,-64.38 h -47.35 c -0.19,0.94 -0.39,3.44 -0.54,7.54 -0.2,4.1 -0.43,8.79 -0.71,14.06 -0.27,5.32 -0.62,15.28 -0.97,29.97 h -0.82 c -11.53,-20.82 -24.85,-35.55 -40,-44.18 -15.12,-8.64 -33.95,-12.93 -56.41,-12.93 -33.05,0 -57.23,8.2 -72.54,24.64 -15.35,16.45 -23.01,43.6 -23.01,81.49 z M 1939.06,1335 h -1.13 c -9.26,-19.3 -21.56,-33.12 -36.88,-41.48 -15.35,-8.36 -34.33,-12.54 -56.99,-12.54 -38.04,0 -66.05,12.81 -83.98,38.43 -17.89,25.63 -26.88,64.42 -26.88,116.45 0,105.08 36.96,157.66 110.86,157.66 22.85,0 41.88,-4.18 57.11,-12.54 15.24,-8.36 27.5,-21.64 36.76,-39.85 h 0.59 l -0.59,33.71 v 125.08 h 50.16 v -351.25 c 0,-31.4 0.54,-52.11 1.68,-62.15 h -47.93 c -0.55,2.97 -1.14,9.85 -1.8,20.63 -0.66,10.78 -0.98,20.08 -0.98,27.85 z m -153.2,102.5 c 0,-42.15 5.59,-72.3 16.72,-90.51 11.13,-18.2 29.26,-27.3 54.3,-27.3 28.43,0 49.02,9.84 61.83,29.53 12.81,19.69 19.22,50.23 19.22,91.64 0,39.92 -6.41,69.18 -19.22,87.73 -12.81,18.56 -33.24,27.86 -61.25,27.86 -25.27,0 -43.51,-9.34 -54.76,-27.97 -11.22,-18.68 -16.84,-48.99 -16.84,-90.98 z M 843.75,1234.53 713.359,915 h -44.918 l -130.39,319.53 h 45.578 l 88.441,-225 19.059,-56.44 19.07,56.44 87.961,225 z m 65.551,-22.03 h -40.8203 v 39.0195 h 40.8203 z m 0,-297.5 h -40.8203 v 245.352 h 40.8203 z m 264.219,0 h -47.86 l -83,111.99 -29.96,-24.69 V 915 h -40.821 v 336.52 h 40.821 v -210.23 l 107.73,119.06 h 47.85 l -99.57,-105.43 z m 71.21,297.5 h -40.8203 v 39.0195 h 40.8203 z m 0,-297.5 h -40.8203 v 245.352 h 40.8203 z m 259.41,0 h -41.05 v 155.55 c 0,16.17 -1.57,28.75 -4.77,37.65 -3.16,8.91 -8.2,15.35 -15.2,19.26 -6.95,3.95 -17.14,5.9 -30.58,5.9 -19.65,0 -35.16,-6.72 -46.49,-20.16 -11.36,-13.47 -17.03,-32.15 -17.03,-56.01 V 915 h -40.82 v 192.97 c 0,28.59 -0.43,46.05 -1.36,52.38 h 38.55 c 0.16,-0.74 0.31,-2.77 0.47,-6.13 0.16,-3.32 0.35,-7.11 0.55,-11.45 0.23,-4.29 0.5,-12.42 0.82,-24.37 h 0.66 c 9.38,16.95 20.23,28.9 32.54,35.94 12.34,7.03 27.66,10.54 45.94,10.54 26.91,0 46.6,-6.68 59.06,-20.08 12.5,-13.35 18.71,-35.46 18.71,-66.32 z m 154.45,-96.41 c -26.75,0 -48.08,5.281 -63.94,15.789 -15.9,10.5 -26.1,25.422 -30.63,44.762 l 41.06,5.898 c 2.69,-11.328 8.71,-20.078 18.01,-26.168 9.29,-6.141 21.52,-9.223 36.64,-9.223 40.66,0 61.01,23.832 61.01,71.442 v 39.461 h -0.47 c -7.69,-15.711 -18.28,-27.539 -31.75,-35.473 -13.44,-7.93 -29.18,-11.918 -47.15,-11.918 -30.12,0 -52.23,10 -66.37,29.93 -14.1,19.961 -21.17,51.32 -21.17,94.14 0,43.39 7.58,75.39 22.77,96.01 15.2,20.67 38.28,30.98 69.3,30.98 17.38,0 32.46,-3.99 45.23,-11.92 12.78,-7.92 22.66,-19.21 29.61,-33.9 h 0.43 c 0,4.53 0.31,12.42 0.9,23.59 0.63,11.17 1.21,17.31 1.84,18.36 h 38.79 c -0.94,-8.16 -1.37,-25.08 -1.37,-50.78 V 921.988 c 0,-68.898 -34.26,-103.398 -102.74,-103.398 z m 62.15,219.07 c 0,19.96 -2.73,37.14 -8.16,51.6 -5.47,14.45 -13.13,25.47 -23.05,33.12 -9.88,7.62 -21.13,11.45 -33.67,11.45 -20.86,0 -36.06,-7.58 -45.59,-22.7 -9.53,-15.11 -14.29,-39.61 -14.29,-73.47 0,-33.56 4.49,-57.66 13.4,-72.351 8.9,-14.649 24.17,-21.989 45.82,-21.989 12.85,0 24.25,3.789 34.21,11.328 10,7.582 17.7,18.442 23.17,32.582 5.43,14.1 8.16,30.93 8.16,50.43 z m 287.31,-54.89 c 0,-23.122 -8.71,-40.93 -26.17,-53.508 -17.47,-12.543 -41.92,-18.832 -73.36,-18.832 -30.55,0 -54.11,5.039 -70.67,15.082 -16.56,10.078 -27.3,25.738 -32.3,47.066 l 36.05,7.031 c 3.48,-13.16 10.67,-22.769 21.52,-28.91 10.9,-6.129 26.02,-9.179 45.4,-9.179 20.7,0 35.86,3.171 45.46,9.531 9.57,6.328 14.38,15.859 14.38,28.558 0,9.692 -3.32,17.539 -9.96,23.591 -6.64,6.06 -17.38,11.02 -32.23,14.96 l -29.22,7.7 c -23.43,6.05 -40.11,11.99 -50.04,17.81 -9.88,5.82 -17.61,12.89 -23.24,21.21 -5.58,8.32 -8.4,18.52 -8.4,30.63 0,22.38 8.01,39.41 23.95,51.13 15.94,11.72 39.18,17.58 69.73,17.58 27.07,0 48.59,-4.77 64.53,-14.3 15.93,-9.53 26.05,-24.8 30.27,-45.82 l -36.76,-4.53 c -2.26,10.9 -8.32,19.26 -18.24,25.08 -9.88,5.82 -23.16,8.71 -39.8,8.71 -18.44,0 -32.04,-2.77 -40.83,-8.36 -8.74,-5.62 -13.16,-14.06 -13.16,-25.43 0,-6.95 1.84,-12.69 5.47,-17.23 3.63,-4.53 8.98,-8.39 16.09,-11.56 7.11,-3.16 22.07,-7.58 44.93,-13.16 21.6,-5.43 37.18,-10.47 46.67,-15.08 9.54,-4.61 17.08,-9.73 22.58,-15.31 5.51,-5.59 9.81,-12.03 12.82,-19.38 3.04,-7.34 4.53,-15.702 4.53,-25.08 z" /></g></g></svg>